<mxfile host="app.diagrams.net" modified="2020-12-27T02:34:37.433Z" agent="5.0 (Macintosh; Intel Mac OS X 11_1_0) AppleWebKit/537.36 (KHTML, like Gecko) Chrome/87.0.4280.88 Safari/537.36" etag="W5YVT2bRe8nFgU9phU6u" version="14.1.2" type="github">
  <diagram id="tzoaFGyctR_2owhoKOhB" name="Page-1">
    <mxGraphModel dx="946" dy="517" grid="1" gridSize="10" guides="1" tooltips="1" connect="1" arrows="1" fold="1" page="1" pageScale="1" pageWidth="850" pageHeight="1100" math="0" shadow="0">
      <root>
        <mxCell id="0" />
        <mxCell id="1" parent="0" />
        <mxCell id="pUESJf0fqrpm3QZ5Tkfx-1" value="" style="strokeWidth=1;shadow=0;dashed=0;align=center;html=1;shape=mxgraph.mockup.containers.browserWindow;rSize=0;strokeColor=#666666;strokeColor2=#008cff;strokeColor3=#c4c4c4;mainText=,;recursiveResize=0;" vertex="1" parent="1">
          <mxGeometry x="40" y="80" width="760" height="520" as="geometry" />
        </mxCell>
        <mxCell id="pUESJf0fqrpm3QZ5Tkfx-2" value="&lt;span style=&quot;color: rgb(36 , 41 , 46) ; font-family: , &amp;#34;consolas&amp;#34; , &amp;#34;liberation mono&amp;#34; , &amp;#34;menlo&amp;#34; , monospace ; font-size: 12px ; background-color: rgb(255 , 255 , 255)&quot;&gt;Milestone Project 01 - Personal Portfolio&lt;/span&gt;" style="strokeWidth=1;shadow=0;dashed=0;align=center;html=1;shape=mxgraph.mockup.containers.anchor;fontSize=17;fontColor=#666666;align=left;" vertex="1" parent="pUESJf0fqrpm3QZ5Tkfx-1">
          <mxGeometry x="60" y="12" width="110" height="26" as="geometry" />
        </mxCell>
        <mxCell id="pUESJf0fqrpm3QZ5Tkfx-3" value="https://www.abr.com" style="strokeWidth=1;shadow=0;dashed=0;align=center;html=1;shape=mxgraph.mockup.containers.anchor;rSize=0;fontSize=17;fontColor=#666666;align=left;" vertex="1" parent="pUESJf0fqrpm3QZ5Tkfx-1">
          <mxGeometry x="130" y="60" width="250" height="26" as="geometry" />
        </mxCell>
        <mxCell id="pUESJf0fqrpm3QZ5Tkfx-12" value="Contact" style="strokeColor=inherit;fillColor=inherit;gradientColor=inherit;strokeWidth=1;shadow=0;dashed=0;align=center;html=1;shape=mxgraph.mockup.text.rrect;rSize=0;fontSize=17;fontColor=#0000ff;sketch=0;" vertex="1" parent="pUESJf0fqrpm3QZ5Tkfx-1">
          <mxGeometry x="612" y="114" width="67.5" height="25" as="geometry" />
        </mxCell>
        <mxCell id="pUESJf0fqrpm3QZ5Tkfx-5" value="" style="strokeWidth=1;shadow=0;dashed=0;align=center;html=1;shape=mxgraph.mockup.text.rrect;rSize=0;strokeColor=#666666;sketch=0;" vertex="1" parent="pUESJf0fqrpm3QZ5Tkfx-1">
          <mxGeometry x="342" y="114" width="270" height="25" as="geometry" />
        </mxCell>
        <mxCell id="pUESJf0fqrpm3QZ5Tkfx-6" value="About" style="strokeColor=inherit;fillColor=inherit;gradientColor=inherit;strokeWidth=1;shadow=0;dashed=0;align=center;html=1;shape=mxgraph.mockup.text.rrect;rSize=0;fontSize=17;fontColor=#0000ff;" vertex="1" parent="pUESJf0fqrpm3QZ5Tkfx-5">
          <mxGeometry x="67.5" width="67.5" height="25" as="geometry" />
        </mxCell>
        <mxCell id="pUESJf0fqrpm3QZ5Tkfx-7" value="My CV" style="strokeColor=inherit;fillColor=inherit;gradientColor=inherit;strokeWidth=1;shadow=0;dashed=0;align=center;html=1;shape=mxgraph.mockup.text.rrect;rSize=0;fontSize=17;fontColor=#0000ff;" vertex="1" parent="pUESJf0fqrpm3QZ5Tkfx-5">
          <mxGeometry x="135" width="67.5" height="25" as="geometry" />
        </mxCell>
        <mxCell id="pUESJf0fqrpm3QZ5Tkfx-8" value="Projects" style="strokeColor=inherit;fillColor=inherit;gradientColor=inherit;strokeWidth=1;shadow=0;dashed=0;align=center;html=1;shape=mxgraph.mockup.text.rrect;rSize=0;fontSize=17;fontColor=#0000ff;" vertex="1" parent="pUESJf0fqrpm3QZ5Tkfx-5">
          <mxGeometry x="202.5" width="67.5" height="25" as="geometry" />
        </mxCell>
        <mxCell id="pUESJf0fqrpm3QZ5Tkfx-9" value="Home" style="strokeWidth=1;shadow=0;dashed=0;align=center;html=1;shape=mxgraph.mockup.text.rrect;rSize=0;fontSize=17;fontColor=#ffffff;fillColor=#008cff;strokeColor=#008cff;" vertex="1" parent="pUESJf0fqrpm3QZ5Tkfx-5">
          <mxGeometry width="67.5" height="25" as="geometry" />
        </mxCell>
        <mxCell id="pUESJf0fqrpm3QZ5Tkfx-13" value="" style="strokeWidth=1;shadow=0;dashed=0;align=center;html=1;shape=mxgraph.mockup.buttons.multiButton;strokeColor=#666666;mainText=;subText=;sketch=0;fillColor=#FFFFFF;" vertex="1" parent="pUESJf0fqrpm3QZ5Tkfx-1">
          <mxGeometry x="680" y="114" width="80" height="30" as="geometry" />
        </mxCell>
        <mxCell id="pUESJf0fqrpm3QZ5Tkfx-14" value="&lt;font style=&quot;font-size: 9px&quot; color=&quot;#000000&quot;&gt;Download CV&lt;/font&gt;" style="strokeWidth=1;shadow=0;dashed=0;align=center;html=1;shape=mxgraph.mockup.anchor;fontSize=16;fontColor=#ffffff;fontStyle=1;whiteSpace=wrap;" vertex="1" parent="pUESJf0fqrpm3QZ5Tkfx-13">
          <mxGeometry y="4.800000000000001" width="80" height="12" as="geometry" />
        </mxCell>
        <mxCell id="pUESJf0fqrpm3QZ5Tkfx-15" value="" style="strokeWidth=1;shadow=0;dashed=0;align=center;html=1;shape=mxgraph.mockup.anchor;fontSize=12;fontColor=#ffffff;fontStyle=1;whiteSpace=wrap;" vertex="1" parent="pUESJf0fqrpm3QZ5Tkfx-13">
          <mxGeometry y="18" width="80" height="6" as="geometry" />
        </mxCell>
        <mxCell id="pUESJf0fqrpm3QZ5Tkfx-17" value="LOGO" style="verticalLabelPosition=bottom;shadow=0;dashed=0;align=center;html=1;verticalAlign=top;strokeWidth=1;shape=mxgraph.mockup.graphics.simpleIcon;strokeColor=#999999;sketch=0;fillColor=#FFFFFF;" vertex="1" parent="pUESJf0fqrpm3QZ5Tkfx-1">
          <mxGeometry y="110" width="80" height="30" as="geometry" />
        </mxCell>
        <mxCell id="pUESJf0fqrpm3QZ5Tkfx-18" value="Atiq Been Rahim" style="text;html=1;strokeColor=none;fillColor=none;align=center;verticalAlign=middle;whiteSpace=wrap;rounded=0;sketch=0;" vertex="1" parent="pUESJf0fqrpm3QZ5Tkfx-1">
          <mxGeometry x="90" y="115" width="100" height="20" as="geometry" />
        </mxCell>
        <mxCell id="pUESJf0fqrpm3QZ5Tkfx-19" value="Image of a developer" style="verticalLabelPosition=bottom;shadow=0;dashed=0;align=center;html=1;verticalAlign=top;strokeWidth=1;shape=mxgraph.mockup.graphics.simpleIcon;strokeColor=#999999;sketch=0;fillColor=#FFFFFF;" vertex="1" parent="pUESJf0fqrpm3QZ5Tkfx-1">
          <mxGeometry x="440" y="260" width="150" height="150" as="geometry" />
        </mxCell>
        <mxCell id="pUESJf0fqrpm3QZ5Tkfx-20" value="Welcome Text" style="verticalLabelPosition=bottom;shadow=0;dashed=0;align=center;html=1;verticalAlign=top;strokeWidth=1;shape=mxgraph.mockup.graphics.simpleIcon;strokeColor=#999999;sketch=0;fillColor=#FFFFFF;" vertex="1" parent="pUESJf0fqrpm3QZ5Tkfx-1">
          <mxGeometry x="210" y="260" width="190" height="150" as="geometry" />
        </mxCell>
        <mxCell id="pUESJf0fqrpm3QZ5Tkfx-23" value="Hello!&lt;br&gt;I&#39;m Atiq&lt;br&gt;Full Stack Developer" style="text;html=1;strokeColor=none;fillColor=none;align=right;verticalAlign=middle;whiteSpace=wrap;rounded=0;sketch=0;" vertex="1" parent="pUESJf0fqrpm3QZ5Tkfx-1">
          <mxGeometry x="270" y="310" width="130" height="40" as="geometry" />
        </mxCell>
        <mxCell id="pUESJf0fqrpm3QZ5Tkfx-24" value="See more" style="strokeWidth=1;shadow=0;dashed=0;align=center;html=1;shape=mxgraph.mockup.buttons.button;strokeColor=#666666;fontColor=#ffffff;mainText=;buttonStyle=round;fontSize=9;fontStyle=1;fillColor=#008cff;whiteSpace=wrap;sketch=0;" vertex="1" parent="pUESJf0fqrpm3QZ5Tkfx-1">
          <mxGeometry x="330" y="353" width="70" height="20" as="geometry" />
        </mxCell>
        <mxCell id="pUESJf0fqrpm3QZ5Tkfx-4" value="Home Page" style="text;html=1;strokeColor=none;fillColor=none;align=center;verticalAlign=middle;whiteSpace=wrap;rounded=0;" vertex="1" parent="1">
          <mxGeometry x="40" y="40" width="760" height="20" as="geometry" />
        </mxCell>
      </root>
    </mxGraphModel>
  </diagram>
</mxfile>
